<?xml version="1.0" encoding="UTF-8" standalone="no"?>
<svg
   xmlns:dc="http://purl.org/dc/elements/1.1/"
   xmlns:cc="http://creativecommons.org/ns#"
   xmlns:rdf="http://www.w3.org/1999/02/22-rdf-syntax-ns#"
   xmlns:svg="http://www.w3.org/2000/svg"
   xmlns="http://www.w3.org/2000/svg"
   xml:space="preserve"
   style="enable-background:new 0 0 20 20;"
   viewBox="0 0 20 20"
   y="0px"
   x="0px"
   id="Capa_1"
   version="1.1"><metadata
   id="metadata17"><rdf:RDF><cc:Work
       rdf:about=""><dc:format>image/svg+xml</dc:format><dc:type
         rdf:resource="http://purl.org/dc/dcmitype/StillImage" /></cc:Work></rdf:RDF></metadata><defs
   id="defs15" />
<g
   id="g10">
	<g
   id="g8">
		<path
   id="path2"
   d="M17.6,13.8c3.2-3.2,3.2-8.3,0-11.5c-3.2-3.2-8.3-3.2-11.5,0C3.5,5.1,3.1,9,4.9,12.2c0,0,0.1,0.2,0,0.4    c-1,1-4.1,4.1-4.1,4.1c-0.8,0.8-1,2-0.3,2.7l0.1,0.1c0.7,0.7,1.9,0.5,2.7-0.3c0,0,3.1-3.1,4.1-4.1c0.2-0.2,0.4-0.1,0.4-0.1    C11,16.9,14.9,16.5,17.6,13.8z M7.6,12.4c-2.3-2.3-2.3-6.1,0-8.5c2.3-2.3,6.1-2.3,8.5,0c2.3,2.3,2.3,6.1,0,8.5    C13.8,14.7,10,14.7,7.6,12.4z" />
		<g
   id="g6">
			<path
   id="path4"
   d="M8.2,7.6c-0.1,0-0.2,0-0.3-0.1C7.4,7.4,7.2,6.9,7.4,6.5c1.1-2.7,4.2-3.9,6.9-2.8c0.4,0.2,0.6,0.7,0.4,1.1     c-0.2,0.4-0.7,0.6-1.1,0.4c-1.8-0.8-3.9,0.1-4.7,1.9C8.8,7.4,8.5,7.6,8.2,7.6z" />
		</g>
	</g>
</g>
</svg>