<?xml version="1.0" encoding="utf-8"?>
<!-- Generator: Adobe Illustrator 22.0.0, SVG Export Plug-In . SVG Version: 6.00 Build 0)  -->
<svg version="1.1" id="Слой_1" xmlns="http://www.w3.org/2000/svg" xmlns:xlink="http://www.w3.org/1999/xlink" x="0px" y="0px"
	 viewBox="0 0 55 53" style="enable-background:new 0 0 55 53;" xml:space="preserve">
<style type="text/css">
	.st0{fill:#F44336;}
	.st1{fill:#00983F;}
</style>
<g>
	<g>
		<path class="st0" d="M29.1,4.4c-2.2,3-4.6,14.6-4.8,15.3c0,0-2.9,14.3-5,16.5c-0.6,0.6-1.3,0.8-1.3,0.8c-0.1,0-0.3,0-0.3,0
			l-1.8,7.7c1.1,0.2,2.6,0.2,3.9-0.5c1.3-0.7,1.8-1.3,2.6-2.5c0.9-1.5,3.5-11.1,5.4-18.2c1.7-6.5,2.8-10.5,3.3-11.4
			c0-0.1,0.1-0.2,0.2-0.3c0.3-0.6,0.7-1.5,1.6-2.4c1.5-1.6,3.3-2.1,3.8-2.3c1.1-0.3,2.2-0.5,3.4-0.4l0,0L41.7,0
			C40.5-0.1,32.2,0.1,29.1,4.4z"/>
		<g>
			<path class="st1" d="M37.1,8.3c-0.5,0.1-2,0.6-3.2,1.9c-0.7,0.7-1.1,1.5-1.3,2.1c-0.1,0.1-0.1,0.3-0.2,0.4
				c-0.4,0.8-1.8,6.1-3.2,11.1c-2.6,9.8-4.6,17-5.6,18.6c-0.9,1.4-1.6,2.2-3.1,3c-1.1,0.6-2.2,0.8-3.2,0.8c-0.6,0-1.2-0.1-1.8-0.2
				L13.9,53c1.2,0,9.2-0.4,12.3-4.7c2.2-3,4-11.8,4.2-12.9c0.1-0.6,2.1-9,3.1-12.7c0.8-2.8,1.7-5.2,2.5-6c0.6-0.6,1.3-0.8,1.3-0.8
				c0.3-0.1,0.5-0.1,0.6-0.1l1.8-7.8C38.9,8,37.8,8.1,37.1,8.3z"/>
			<g>
				<path class="st0" d="M11.1,18.8C13,18,17.3,17.9,23,17.9l0.6-2.5c-3.1-0.4-6.5-0.7-11.7-0.1C9,15.6,5.5,16.8,2.8,20
					c-0.7,0.8-2.9,3.5-2.8,7.4c0.1,4.5,3,7.4,3.7,8.1c3.3,3.2,7.6,3.8,10.2,4.2c0.5,0.1,0.8,0.1,1.2,0.1l0.5-2.1
					c-0.5-0.1-2.1-0.5-4.1-1.4c-0.3-0.1-2.6-1-4-2.4c-2.3-2.2-3.2-6.2-1.9-9.7C6.6,21.6,8.9,19.8,11.1,18.8z"/>
			</g>
		</g>
	</g>
	<g>
		<path class="st1" d="M51.3,18.5c-3.3-3.2-7.6-3.8-10.2-4.2c-0.5-0.1-0.7-0.1-1.1-0.1l-0.5,2.1c0.6,0.1,2.1,0.6,4,1.4
			c0.3,0.1,2.6,1,4,2.4c2.3,2.2,3.2,6.2,1.9,9.7c-1,2.6-3.3,4.4-5.5,5.4c-1.9,0.8-6.1,0.9-11.8,0.9l-0.6,2.5
			c3.1,0.3,6.5,0.7,11.6,0.1c2.9-0.3,6.4-1.5,9.1-4.7c0.7-0.8,2.9-3.5,2.8-7.4C55,22.1,52,19.2,51.3,18.5z"/>
	</g>
</g>
</svg>
